<svg width="119" height="164" viewBox="0 0 119 164" fill="none" xmlns="http://www.w3.org/2000/svg">
<path d="M82 0C85.1072 0 88.174 0.174172 91.1914 0.510742C62.8755 7.85326 41.5 41.098 41.5 81C41.5 123.613 65.8789 158.632 97.0547 162.619C92.1744 163.525 87.1426 164 82 164C36.7128 164 0 127.287 0 82C0.000155349 36.7129 36.7129 0.000195922 82 0Z" fill="white"/>
<path d="M71.1033 58.7273V106H61.1087V58.7273H71.1033Z" fill="white"/>
<path d="M118.867 58.7273V106H110.234L89.6674 76.2468H89.3211V106H79.3264V58.7273H88.0977L108.503 88.4574H108.918V58.7273H118.867Z" fill="white"/>
</svg>
